<mxfile host="app.diagrams.net" modified="2024-02-26T00:38:09.492Z" agent="Mozilla/5.0 (Windows NT 10.0; Win64; x64) AppleWebKit/537.36 (KHTML, like Gecko) Chrome/121.0.0.0 Safari/537.36" etag="QDxHWST29SWGUm4lx-m-" version="23.1.6" type="device">
  <diagram name="Page-1" id="e-UWlnVNp6fFZ6mDiCyq">
    <mxGraphModel dx="1481" dy="771" grid="1" gridSize="10" guides="1" tooltips="1" connect="1" arrows="1" fold="1" page="1" pageScale="1" pageWidth="850" pageHeight="1100" math="0" shadow="0">
      <root>
        <mxCell id="0" />
        <mxCell id="1" parent="0" />
        <mxCell id="oFm05coAz8Q8FIHRmpqH-1" value="v1&lt;br&gt;pagamento&lt;br&gt;aprovado" style="rounded=1;whiteSpace=wrap;html=1;" parent="1" vertex="1">
          <mxGeometry x="310" y="20" width="120" height="60" as="geometry" />
        </mxCell>
        <mxCell id="oFm05coAz8Q8FIHRmpqH-2" value="v2&lt;br&gt;pagamento&lt;br&gt;aprovado" style="rounded=1;whiteSpace=wrap;html=1;" parent="1" vertex="1">
          <mxGeometry x="450" y="20" width="120" height="60" as="geometry" />
        </mxCell>
        <mxCell id="oFm05coAz8Q8FIHRmpqH-3" value="v1 HUB" style="rounded=0;whiteSpace=wrap;html=1;verticalAlign=top;" parent="1" vertex="1">
          <mxGeometry x="40" y="120" width="780" height="130" as="geometry" />
        </mxCell>
        <mxCell id="oFm05coAz8Q8FIHRmpqH-20" style="edgeStyle=orthogonalEdgeStyle;rounded=0;orthogonalLoop=1;jettySize=auto;html=1;strokeColor=#0066CC;" parent="1" source="oFm05coAz8Q8FIHRmpqH-4" target="oFm05coAz8Q8FIHRmpqH-24" edge="1">
          <mxGeometry relative="1" as="geometry">
            <mxPoint x="330" y="260" as="targetPoint" />
            <Array as="points">
              <mxPoint x="350" y="260" />
              <mxPoint x="350" y="260" />
            </Array>
          </mxGeometry>
        </mxCell>
        <mxCell id="oFm05coAz8Q8FIHRmpqH-21" style="edgeStyle=orthogonalEdgeStyle;rounded=0;orthogonalLoop=1;jettySize=auto;html=1;" parent="1" source="oFm05coAz8Q8FIHRmpqH-4" target="oFm05coAz8Q8FIHRmpqH-5" edge="1">
          <mxGeometry relative="1" as="geometry" />
        </mxCell>
        <mxCell id="oFm05coAz8Q8FIHRmpqH-4" value="caller worker" style="rounded=1;whiteSpace=wrap;html=1;" parent="1" vertex="1">
          <mxGeometry x="270" y="180" width="120" height="40" as="geometry" />
        </mxCell>
        <mxCell id="oFm05coAz8Q8FIHRmpqH-5" value="response worker" style="rounded=1;whiteSpace=wrap;html=1;" parent="1" vertex="1">
          <mxGeometry x="470" y="180" width="120" height="40" as="geometry" />
        </mxCell>
        <mxCell id="oFm05coAz8Q8FIHRmpqH-47" style="edgeStyle=orthogonalEdgeStyle;rounded=0;orthogonalLoop=1;jettySize=auto;html=1;dashed=1;endArrow=none;endFill=0;exitX=0.5;exitY=1;exitDx=0;exitDy=0;" parent="1" source="oFm05coAz8Q8FIHRmpqH-10" target="oFm05coAz8Q8FIHRmpqH-32" edge="1">
          <mxGeometry relative="1" as="geometry">
            <Array as="points">
              <mxPoint x="330" y="725" />
              <mxPoint x="430" y="725" />
            </Array>
          </mxGeometry>
        </mxCell>
        <mxCell id="oFm05coAz8Q8FIHRmpqH-7" value="v1 RPaaS" style="rounded=0;whiteSpace=wrap;html=1;verticalAlign=top;" parent="1" vertex="1">
          <mxGeometry x="40" y="460" width="180" height="210" as="geometry" />
        </mxCell>
        <mxCell id="oFm05coAz8Q8FIHRmpqH-8" value="http connector" style="rounded=1;whiteSpace=wrap;html=1;" parent="1" vertex="1">
          <mxGeometry x="70" y="560" width="120" height="40" as="geometry" />
        </mxCell>
        <mxCell id="oFm05coAz8Q8FIHRmpqH-9" value="rpaas" style="rounded=1;whiteSpace=wrap;html=1;" parent="1" vertex="1">
          <mxGeometry x="70" y="610" width="120" height="40" as="geometry" />
        </mxCell>
        <mxCell id="oFm05coAz8Q8FIHRmpqH-10" value="v2 RPaaS" style="rounded=0;whiteSpace=wrap;html=1;verticalAlign=top;" parent="1" vertex="1">
          <mxGeometry x="240" y="460" width="180" height="210" as="geometry" />
        </mxCell>
        <mxCell id="oFm05coAz8Q8FIHRmpqH-11" value="http connector" style="rounded=1;whiteSpace=wrap;html=1;" parent="1" vertex="1">
          <mxGeometry x="270" y="560" width="120" height="40" as="geometry" />
        </mxCell>
        <mxCell id="oFm05coAz8Q8FIHRmpqH-12" value="rpaas" style="rounded=1;whiteSpace=wrap;html=1;" parent="1" vertex="1">
          <mxGeometry x="270" y="610" width="120" height="40" as="geometry" />
        </mxCell>
        <mxCell id="oFm05coAz8Q8FIHRmpqH-13" value="v1 RBaaS" style="rounded=0;whiteSpace=wrap;html=1;verticalAlign=top;" parent="1" vertex="1">
          <mxGeometry x="440" y="460" width="180" height="210" as="geometry" />
        </mxCell>
        <mxCell id="oFm05coAz8Q8FIHRmpqH-14" value="http connector" style="rounded=1;whiteSpace=wrap;html=1;" parent="1" vertex="1">
          <mxGeometry x="470" y="560" width="120" height="40" as="geometry" />
        </mxCell>
        <mxCell id="oFm05coAz8Q8FIHRmpqH-15" value="rbaas" style="rounded=1;whiteSpace=wrap;html=1;" parent="1" vertex="1">
          <mxGeometry x="470" y="610" width="120" height="40" as="geometry" />
        </mxCell>
        <mxCell id="oFm05coAz8Q8FIHRmpqH-16" value="v2 RBaaS" style="rounded=0;whiteSpace=wrap;html=1;verticalAlign=top;" parent="1" vertex="1">
          <mxGeometry x="640" y="460" width="180" height="210" as="geometry" />
        </mxCell>
        <mxCell id="oFm05coAz8Q8FIHRmpqH-17" value="http connector" style="rounded=1;whiteSpace=wrap;html=1;" parent="1" vertex="1">
          <mxGeometry x="670" y="560" width="120" height="40" as="geometry" />
        </mxCell>
        <mxCell id="oFm05coAz8Q8FIHRmpqH-18" value="rbaas" style="rounded=1;whiteSpace=wrap;html=1;" parent="1" vertex="1">
          <mxGeometry x="670" y="610" width="120" height="40" as="geometry" />
        </mxCell>
        <mxCell id="oFm05coAz8Q8FIHRmpqH-19" style="edgeStyle=orthogonalEdgeStyle;rounded=0;orthogonalLoop=1;jettySize=auto;html=1;strokeColor=#00CC00;" parent="1" source="oFm05coAz8Q8FIHRmpqH-1" edge="1">
          <mxGeometry relative="1" as="geometry">
            <mxPoint x="310" y="180" as="targetPoint" />
            <Array as="points">
              <mxPoint x="370" y="90" />
              <mxPoint x="310" y="90" />
            </Array>
          </mxGeometry>
        </mxCell>
        <mxCell id="oFm05coAz8Q8FIHRmpqH-23" style="edgeStyle=orthogonalEdgeStyle;rounded=0;orthogonalLoop=1;jettySize=auto;html=1;strokeColor=#0066CC;entryX=0.667;entryY=0;entryDx=0;entryDy=0;entryPerimeter=0;" parent="1" source="oFm05coAz8Q8FIHRmpqH-2" target="oFm05coAz8Q8FIHRmpqH-4" edge="1">
          <mxGeometry relative="1" as="geometry">
            <mxPoint x="510" y="120" as="targetPoint" />
            <Array as="points">
              <mxPoint x="510" y="110" />
              <mxPoint x="350" y="110" />
            </Array>
          </mxGeometry>
        </mxCell>
        <mxCell id="oFm05coAz8Q8FIHRmpqH-25" style="edgeStyle=orthogonalEdgeStyle;rounded=0;orthogonalLoop=1;jettySize=auto;html=1;strokeColor=#00CC00;" parent="1" source="oFm05coAz8Q8FIHRmpqH-24" target="oFm05coAz8Q8FIHRmpqH-7" edge="1">
          <mxGeometry relative="1" as="geometry">
            <Array as="points">
              <mxPoint x="110" y="420" />
              <mxPoint x="110" y="420" />
            </Array>
          </mxGeometry>
        </mxCell>
        <mxCell id="oFm05coAz8Q8FIHRmpqH-26" style="edgeStyle=orthogonalEdgeStyle;rounded=0;orthogonalLoop=1;jettySize=auto;html=1;strokeColor=#00CC00;" parent="1" source="oFm05coAz8Q8FIHRmpqH-24" edge="1">
          <mxGeometry relative="1" as="geometry">
            <mxPoint x="500" y="460" as="targetPoint" />
            <Array as="points">
              <mxPoint x="500" y="460" />
            </Array>
          </mxGeometry>
        </mxCell>
        <mxCell id="oFm05coAz8Q8FIHRmpqH-29" style="edgeStyle=orthogonalEdgeStyle;rounded=0;orthogonalLoop=1;jettySize=auto;html=1;strokeColor=#4C0099;" parent="1" source="oFm05coAz8Q8FIHRmpqH-24" edge="1">
          <mxGeometry relative="1" as="geometry">
            <mxPoint x="150" y="460" as="targetPoint" />
            <Array as="points">
              <mxPoint x="150" y="460" />
            </Array>
          </mxGeometry>
        </mxCell>
        <mxCell id="oFm05coAz8Q8FIHRmpqH-48" value="precisa ser&lt;br style=&quot;font-size: 9px;&quot;&gt;a mesma &lt;br style=&quot;font-size: 9px;&quot;&gt;cÃ©lula" style="edgeLabel;html=1;align=center;verticalAlign=middle;resizable=0;points=[];fontSize=9;" parent="oFm05coAz8Q8FIHRmpqH-29" vertex="1" connectable="0">
          <mxGeometry x="-0.1942" y="-3" relative="1" as="geometry">
            <mxPoint x="3" y="2" as="offset" />
          </mxGeometry>
        </mxCell>
        <mxCell id="oFm05coAz8Q8FIHRmpqH-41" style="edgeStyle=orthogonalEdgeStyle;rounded=0;orthogonalLoop=1;jettySize=auto;html=1;strokeColor=#0066CC;" parent="1" source="oFm05coAz8Q8FIHRmpqH-24" edge="1">
          <mxGeometry relative="1" as="geometry">
            <mxPoint x="300" y="460" as="targetPoint" />
            <Array as="points">
              <mxPoint x="300" y="460" />
            </Array>
          </mxGeometry>
        </mxCell>
        <mxCell id="oFm05coAz8Q8FIHRmpqH-43" style="edgeStyle=orthogonalEdgeStyle;rounded=0;orthogonalLoop=1;jettySize=auto;html=1;entryX=0.611;entryY=-0.008;entryDx=0;entryDy=0;entryPerimeter=0;strokeColor=#4C0099;" parent="1" source="oFm05coAz8Q8FIHRmpqH-24" target="oFm05coAz8Q8FIHRmpqH-10" edge="1">
          <mxGeometry relative="1" as="geometry">
            <Array as="points">
              <mxPoint x="350" y="390" />
              <mxPoint x="350" y="390" />
            </Array>
          </mxGeometry>
        </mxCell>
        <mxCell id="oFm05coAz8Q8FIHRmpqH-44" style="edgeStyle=orthogonalEdgeStyle;rounded=0;orthogonalLoop=1;jettySize=auto;html=1;strokeColor=#4C0099;" parent="1" source="oFm05coAz8Q8FIHRmpqH-24" edge="1">
          <mxGeometry relative="1" as="geometry">
            <mxPoint x="550" y="460" as="targetPoint" />
            <Array as="points">
              <mxPoint x="550" y="460" />
            </Array>
          </mxGeometry>
        </mxCell>
        <mxCell id="oFm05coAz8Q8FIHRmpqH-45" style="edgeStyle=orthogonalEdgeStyle;rounded=0;orthogonalLoop=1;jettySize=auto;html=1;strokeColor=#0066CC;" parent="1" source="oFm05coAz8Q8FIHRmpqH-24" edge="1">
          <mxGeometry relative="1" as="geometry">
            <mxPoint x="710" y="460" as="targetPoint" />
            <Array as="points">
              <mxPoint x="710" y="460" />
            </Array>
          </mxGeometry>
        </mxCell>
        <mxCell id="oFm05coAz8Q8FIHRmpqH-46" style="edgeStyle=orthogonalEdgeStyle;rounded=0;orthogonalLoop=1;jettySize=auto;html=1;strokeColor=#4C0099;" parent="1" source="oFm05coAz8Q8FIHRmpqH-24" edge="1">
          <mxGeometry relative="1" as="geometry">
            <mxPoint x="750" y="460" as="targetPoint" />
            <Array as="points">
              <mxPoint x="750" y="400" />
              <mxPoint x="750" y="400" />
            </Array>
          </mxGeometry>
        </mxCell>
        <mxCell id="oFm05coAz8Q8FIHRmpqH-24" value="Compass Router" style="rounded=0;whiteSpace=wrap;html=1;verticalAlign=top;" parent="1" vertex="1">
          <mxGeometry x="40" y="270" width="780" height="120" as="geometry" />
        </mxCell>
        <mxCell id="oFm05coAz8Q8FIHRmpqH-27" style="edgeStyle=orthogonalEdgeStyle;rounded=0;orthogonalLoop=1;jettySize=auto;html=1;entryX=0.358;entryY=0.008;entryDx=0;entryDy=0;entryPerimeter=0;strokeColor=#00CC00;exitX=0.325;exitY=0.982;exitDx=0;exitDy=0;exitPerimeter=0;" parent="1" source="oFm05coAz8Q8FIHRmpqH-4" edge="1">
          <mxGeometry relative="1" as="geometry">
            <mxPoint x="310" y="230" as="sourcePoint" />
            <mxPoint x="309.9999999999999" y="271.03999999999996" as="targetPoint" />
            <Array as="points">
              <mxPoint x="309" y="271" />
            </Array>
          </mxGeometry>
        </mxCell>
        <mxCell id="oFm05coAz8Q8FIHRmpqH-31" style="edgeStyle=orthogonalEdgeStyle;rounded=0;orthogonalLoop=1;jettySize=auto;html=1;entryX=0.629;entryY=-0.014;entryDx=0;entryDy=0;entryPerimeter=0;strokeColor=#4C0099;" parent="1" source="oFm05coAz8Q8FIHRmpqH-5" target="oFm05coAz8Q8FIHRmpqH-24" edge="1">
          <mxGeometry relative="1" as="geometry" />
        </mxCell>
        <mxCell id="oFm05coAz8Q8FIHRmpqH-32" value="RXaaS" style="rounded=0;whiteSpace=wrap;html=1;verticalAlign=top;" parent="1" vertex="1">
          <mxGeometry x="40" y="780" width="780" height="210" as="geometry" />
        </mxCell>
        <mxCell id="oFm05coAz8Q8FIHRmpqH-38" style="edgeStyle=orthogonalEdgeStyle;rounded=0;orthogonalLoop=1;jettySize=auto;html=1;entryX=0.5;entryY=0;entryDx=0;entryDy=0;" parent="1" source="oFm05coAz8Q8FIHRmpqH-33" target="oFm05coAz8Q8FIHRmpqH-34" edge="1">
          <mxGeometry relative="1" as="geometry">
            <Array as="points">
              <mxPoint x="430" y="890" />
              <mxPoint x="340" y="890" />
            </Array>
          </mxGeometry>
        </mxCell>
        <mxCell id="oFm05coAz8Q8FIHRmpqH-39" style="edgeStyle=orthogonalEdgeStyle;rounded=0;orthogonalLoop=1;jettySize=auto;html=1;entryX=0.5;entryY=0;entryDx=0;entryDy=0;" parent="1" source="oFm05coAz8Q8FIHRmpqH-33" target="oFm05coAz8Q8FIHRmpqH-35" edge="1">
          <mxGeometry relative="1" as="geometry" />
        </mxCell>
        <mxCell id="oFm05coAz8Q8FIHRmpqH-33" value="http connector" style="rounded=1;whiteSpace=wrap;html=1;" parent="1" vertex="1">
          <mxGeometry x="370" y="830" width="120" height="40" as="geometry" />
        </mxCell>
        <mxCell id="oFm05coAz8Q8FIHRmpqH-34" value="rpaas v1" style="rounded=1;whiteSpace=wrap;html=1;" parent="1" vertex="1">
          <mxGeometry x="280" y="910" width="120" height="40" as="geometry" />
        </mxCell>
        <mxCell id="oFm05coAz8Q8FIHRmpqH-35" value="rpaas v2" style="rounded=1;whiteSpace=wrap;html=1;" parent="1" vertex="1">
          <mxGeometry x="460" y="910" width="120" height="40" as="geometry" />
        </mxCell>
        <mxCell id="oFm05coAz8Q8FIHRmpqH-49" value="precisa ser&lt;br style=&quot;font-size: 9px;&quot;&gt;a mesma &lt;br style=&quot;font-size: 9px;&quot;&gt;cÃ©lula" style="edgeLabel;html=1;align=center;verticalAlign=middle;resizable=0;points=[];fontSize=9;" parent="1" vertex="1" connectable="0">
          <mxGeometry x="200.00263157894727" y="419.9994736842104" as="geometry">
            <mxPoint x="152" y="-2" as="offset" />
          </mxGeometry>
        </mxCell>
        <mxCell id="oFm05coAz8Q8FIHRmpqH-50" value="precisa ser&lt;br style=&quot;font-size: 9px;&quot;&gt;a mesma &lt;br style=&quot;font-size: 9px;&quot;&gt;cÃ©lula" style="edgeLabel;html=1;align=center;verticalAlign=middle;resizable=0;points=[];fontSize=9;" parent="1" vertex="1" connectable="0">
          <mxGeometry x="400.0026315789473" y="419.9994736842104" as="geometry">
            <mxPoint x="152" y="-2" as="offset" />
          </mxGeometry>
        </mxCell>
        <mxCell id="oFm05coAz8Q8FIHRmpqH-51" value="precisa ser&lt;br style=&quot;font-size: 9px;&quot;&gt;a mesma &lt;br style=&quot;font-size: 9px;&quot;&gt;cÃ©lula" style="edgeLabel;html=1;align=center;verticalAlign=middle;resizable=0;points=[];fontSize=9;" parent="1" vertex="1" connectable="0">
          <mxGeometry x="600.0026315789473" y="419.9994736842104" as="geometry">
            <mxPoint x="152" y="-2" as="offset" />
          </mxGeometry>
        </mxCell>
        <mxCell id="oFm05coAz8Q8FIHRmpqH-54" style="edgeStyle=orthogonalEdgeStyle;rounded=0;orthogonalLoop=1;jettySize=auto;html=1;entryX=1;entryY=0.5;entryDx=0;entryDy=0;dashed=1;dashPattern=1 1;" parent="1" source="oFm05coAz8Q8FIHRmpqH-53" target="oFm05coAz8Q8FIHRmpqH-33" edge="1">
          <mxGeometry relative="1" as="geometry" />
        </mxCell>
        <mxCell id="oFm05coAz8Q8FIHRmpqH-53" value="http connector adiciona a versÃ£o recebida pelo header da requisiÃ§Ã£o no path da chamada para o aas. precisa conhecer todas as versÃµes disponÃ­veis para encontrar a mais prÃ³xima possÃ­vel da executada no passo anterior." style="text;html=1;strokeColor=default;fillColor=none;align=center;verticalAlign=middle;whiteSpace=wrap;rounded=0;dashed=1;dashPattern=1 1;" parent="1" vertex="1">
          <mxGeometry x="550" y="790" width="260" height="80" as="geometry" />
        </mxCell>
        <mxCell id="oFm05coAz8Q8FIHRmpqH-55" value="&lt;ul&gt;&lt;li style=&quot;&quot;&gt;Ã possÃ­vel customizar a configuraÃ§Ã£o do envoy no momento em que a cÃ©lula e a API gateway da cÃ©lula sÃ£o criados?&lt;/li&gt;&lt;ul&gt;&lt;li style=&quot;&quot;&gt;Precisamos incluir a versÃ£o e os headers de match quando versionamos uma cÃ©lula.&lt;/li&gt;&lt;/ul&gt;&lt;li style=&quot;&quot;&gt;Ã possÃ­vel customizar a url do api gateway que o camada zero cria?&lt;/li&gt;&lt;li style=&quot;&quot;&gt;Podemos incluir a versÃ£o no host para rotear a partir dele?&lt;/li&gt;&lt;li style=&quot;&quot;&gt;Conseguimos a url da cÃ©lular na execuÃ§Ã£o do caller worker para o response worker buscar a resposta na mesma cÃ©lula?&lt;/li&gt;&lt;/ul&gt;" style="text;html=1;strokeColor=#FF0000;fillColor=none;align=left;verticalAlign=middle;whiteSpace=wrap;rounded=0;dashed=1;dashPattern=1 1;" parent="1" vertex="1">
          <mxGeometry x="830" y="270" width="700" height="100" as="geometry" />
        </mxCell>
        <mxCell id="oFm05coAz8Q8FIHRmpqH-56" value="&lt;div style=&quot;font-size: 14px;&quot;&gt;&lt;font style=&quot;font-size: 14px;&quot;&gt;&amp;nbsp; PossÃ­veis SoluÃ§Ãµes&lt;/font&gt;&lt;/div&gt;&lt;ul style=&quot;&quot;&gt;&lt;li style=&quot;&quot;&gt;Versionar o endpoint em nova versÃ£o do workflow no hub&lt;/li&gt;&lt;li style=&quot;&quot;&gt;Criar cÃ©lula com HUB + as a services&lt;/li&gt;&lt;li style=&quot;&quot;&gt;Incluir versÃ£o e host da cÃ©lular que executou no caller worker para o response worker buscar a resposta&lt;/li&gt;&lt;/ul&gt;" style="text;html=1;strokeColor=#FF0000;fillColor=none;align=left;verticalAlign=middle;whiteSpace=wrap;rounded=0;dashed=1;dashPattern=1 1;" parent="1" vertex="1">
          <mxGeometry x="830" y="390" width="700" height="100" as="geometry" />
        </mxCell>
        <mxCell id="oFm05coAz8Q8FIHRmpqH-57" value="API gateway" style="rounded=1;whiteSpace=wrap;html=1;" parent="1" vertex="1">
          <mxGeometry x="70" y="510" width="120" height="40" as="geometry" />
        </mxCell>
        <mxCell id="oFm05coAz8Q8FIHRmpqH-58" value="API gateway" style="rounded=1;whiteSpace=wrap;html=1;" parent="1" vertex="1">
          <mxGeometry x="270" y="510" width="120" height="40" as="geometry" />
        </mxCell>
        <mxCell id="oFm05coAz8Q8FIHRmpqH-59" value="API gateway" style="rounded=1;whiteSpace=wrap;html=1;" parent="1" vertex="1">
          <mxGeometry x="470" y="510" width="120" height="40" as="geometry" />
        </mxCell>
        <mxCell id="oFm05coAz8Q8FIHRmpqH-60" value="API gateway" style="rounded=1;whiteSpace=wrap;html=1;" parent="1" vertex="1">
          <mxGeometry x="670" y="510" width="120" height="40" as="geometry" />
        </mxCell>
        <mxCell id="oFm05coAz8Q8FIHRmpqH-61" value="&lt;div&gt;Adiciona header no retorno com o host da cÃ©lula que executou o passo no caller worker&lt;/div&gt;" style="text;html=1;strokeColor=#000000;fillColor=none;align=center;verticalAlign=middle;whiteSpace=wrap;rounded=0;dashed=1;dashPattern=1 1;" parent="1" vertex="1">
          <mxGeometry x="600" y="280" width="210" height="50" as="geometry" />
        </mxCell>
        <mxCell id="ieF6OrlZIxQz-D5HnKO0-1" value="&lt;div style=&quot;font-size: 12px;&quot;&gt;Headers&lt;/div&gt;&lt;div style=&quot;font-size: 12px;&quot;&gt;&lt;ul style=&quot;font-size: 12px;&quot;&gt;&lt;li style=&quot;font-size: 12px;&quot;&gt;irn&lt;/li&gt;&lt;li style=&quot;font-size: 12px;&quot;&gt;versÃ£o da cÃ©lula&lt;/li&gt;&lt;li style=&quot;font-size: 12px;&quot;&gt;host da cÃ©lula que executou no caller worker&lt;/li&gt;&lt;/ul&gt;&lt;/div&gt;&lt;div style=&quot;font-size: 12px;&quot;&gt;&lt;br style=&quot;font-size: 12px;&quot;&gt;&lt;/div&gt;" style="text;html=1;strokeColor=#000000;fillColor=none;align=left;verticalAlign=top;whiteSpace=wrap;rounded=0;dashed=1;dashPattern=1 1;fontSize=12;" vertex="1" parent="1">
          <mxGeometry x="50" y="280" width="290" height="100" as="geometry" />
        </mxCell>
      </root>
    </mxGraphModel>
  </diagram>
</mxfile>
